<svg width="184" height="178" viewBox="0 0 184 178" fill="none" xmlns="http://www.w3.org/2000/svg">
<path d="M91.6667 149.435L57.26 170.062C54.5641 171.682 51.4784 172.537 48.3333 172.537C45.1883 172.537 42.1025 171.682 39.4067 170.062L13.4067 154.462C10.8479 152.925 8.72951 150.753 7.25669 148.156C5.78387 145.56 5.00654 142.627 5 139.642V111.562C5.00654 108.577 5.78387 105.644 7.25669 103.048C8.72951 100.451 10.8479 98.2793 13.4067 96.742L48.3333 75.7687M91.6667 149.435V101.769M91.6667 149.435L126.073 170.062C128.769 171.682 131.855 172.537 135 172.537C138.145 172.537 141.231 171.682 143.927 170.062L169.927 154.462C172.485 152.925 174.604 150.753 176.077 148.156C177.549 145.56 178.327 142.627 178.333 139.642V111.562C178.327 108.577 177.549 105.644 176.077 103.048C174.604 100.451 172.485 98.2793 169.927 96.742L135 75.7687M91.6667 101.769L48.3333 75.7687M91.6667 101.769L48.3333 127.769M91.6667 101.769L135 75.7687M91.6667 101.769L135 127.769M91.6667 101.769L91.6667 54.102M48.3333 75.7687L48.3333 37.8954C48.3399 34.9103 49.1172 31.9776 50.59 29.3811C52.0628 26.7847 54.1812 24.6127 56.74 23.0754L82.74 7.47537C85.4359 5.85568 88.5216 5 91.6667 5C94.8117 5 97.8974 5.85568 100.593 7.47537L126.593 23.0754C129.152 24.6127 131.27 26.7847 132.743 29.3811C134.216 31.9776 134.993 34.9103 135 37.8954V75.7687M48.3333 127.769L7.25333 103.069M48.3333 127.769L48.3333 172.575M135 127.769L176.08 103.069M135 127.769V172.575M91.6667 54.102L50.5867 29.402M91.6667 54.102L132.747 29.402" stroke="black" stroke-width="10" stroke-linecap="round" stroke-linejoin="round"/>
</svg>
